<?xml version="1.0" standalone="no"?>
<!DOCTYPE svg PUBLIC "-//W3C//DTD SVG 20010904//EN"
 "http://www.w3.org/TR/2001/REC-SVG-20010904/DTD/svg10.dtd">
<svg version="1.0" xmlns="http://www.w3.org/2000/svg"
 width="740.000000pt" height="740.000000pt" viewBox="0 0 740.000000 740.000000"
 preserveAspectRatio="xMidYMid meet">

<g transform="translate(0.000000,740.000000) scale(0.100000,-0.100000)"
fill="#000000" stroke="none">
<path d="M3620 6024 c-243 -22 -482 -103 -677 -230 -275 -178 -466 -416 -583
-723 l-35 -93 -72 -19 c-293 -74 -532 -269 -669 -544 -80 -161 -107 -273 -107
-450 -1 -153 8 -213 55 -352 37 -109 73 -157 142 -189 l51 -24 552 0 552 0
-16 53 c-9 28 -21 88 -27 132 l-12 80 -489 3 c-269 1 -493 6 -496 10 -21 21
-41 130 -46 238 -7 156 11 242 79 384 45 92 61 115 142 195 98 97 168 143 274
182 75 28 195 52 259 53 38 0 43 3 49 28 60 271 151 452 312 623 404 430 1051
503 1547 174 75 -50 222 -191 281 -269 102 -136 168 -277 212 -452 l25 -102
76 -6 c109 -10 183 -31 286 -81 183 -89 321 -248 392 -450 26 -75 28 -90 27
-240 0 -133 -3 -170 -20 -220 l-20 -60 -494 -5 -495 -5 -7 -65 c-4 -36 -16
-95 -26 -132 l-19 -68 545 0 c388 0 556 3 584 12 68 20 123 78 156 166 52 134
67 221 66 382 0 115 -4 163 -21 231 -26 102 -85 242 -134 319 -135 209 -359
375 -598 443 l-84 24 -28 76 c-181 498 -614 864 -1125 951 -93 16 -287 27
-364 20z"/>
<path d="M3570 4505 c-343 -70 -603 -356 -639 -701 -26 -255 64 -495 250 -668
35 -32 81 -75 102 -95 22 -19 51 -58 65 -86 23 -44 26 -64 30 -180 3 -99 8
-134 20 -147 14 -16 43 -18 327 -18 284 0 313 2 327 18 12 13 17 48 20 142 6
173 14 190 182 354 118 117 138 141 179 221 66 130 91 233 91 375 0 131 -18
215 -69 326 -134 294 -420 477 -738 473 -45 0 -111 -7 -147 -14z"/>
<path d="M3344 2461 c-97 -44 -100 -215 -4 -263 31 -16 72 -18 383 -18 385 0
400 2 437 62 26 44 27 131 1 174 -38 62 -52 64 -433 64 -312 0 -347 -2 -384
-19z"/>
<path d="M3426 2034 c-25 -24 -19 -51 18 -92 l34 -37 231 -3 c255 -3 281 1
314 57 21 36 21 55 1 75 -13 14 -55 16 -299 16 -244 0 -286 -2 -299 -16z"/>
<path d="M2749 1387 c-80 -53 -90 -181 -20 -259 34 -39 109 -50 160 -24 39 21
76 76 58 88 -19 12 -24 10 -45 -26 -25 -42 -74 -56 -119 -34 -70 33 -84 166
-23 221 43 38 92 37 132 -3 30 -30 58 -39 58 -19 0 6 -15 26 -34 45 -30 30
-41 34 -84 34 -35 0 -59 -7 -83 -23z"/>
<path d="M3010 1256 c0 -128 3 -155 15 -160 13 -5 15 16 15 154 0 136 -2 160
-15 160 -13 0 -15 -24 -15 -154z"/>
<path d="M3740 1354 c0 -45 -3 -55 -12 -46 -7 7 -31 12 -54 12 -34 0 -47 -5
-63 -26 -43 -55 -35 -144 16 -184 30 -24 75 -26 96 -5 13 13 16 13 21 0 3 -8
12 -12 21 -9 13 5 15 28 13 158 -3 134 -5 151 -20 154 -16 3 -18 -5 -18 -54z
m-26 -75 c22 -17 26 -28 26 -71 0 -58 -19 -88 -57 -88 -60 0 -88 107 -41 157
26 28 38 29 72 2z"/>
<path d="M3980 1252 c0 -134 2 -159 15 -159 13 0 15 25 15 159 0 134 -2 158
-15 158 -13 0 -15 -24 -15 -158z"/>
<path d="M4230 1354 c0 -45 -3 -55 -12 -46 -7 7 -31 12 -54 12 -34 0 -47 -5
-63 -26 -43 -55 -35 -144 16 -184 30 -24 75 -26 93 -5 11 13 14 14 24 0 7 -9
16 -11 24 -7 9 7 12 45 10 158 -3 132 -5 149 -20 152 -16 3 -18 -5 -18 -54z
m-12 -82 c21 -28 18 -108 -5 -134 -23 -25 -68 -23 -87 4 -9 13 -16 43 -16 69
0 40 5 51 27 68 28 23 59 20 81 -7z"/>
<path d="M3134 1305 c-55 -38 -57 -140 -4 -187 51 -47 134 -30 160 32 20 47 8
120 -25 147 -31 27 -99 31 -131 8z m102 -28 c52 -45 27 -157 -36 -157 -46 0
-70 31 -70 89 0 42 4 53 26 70 34 27 47 26 80 -2z"/>
<path d="M3350 1225 c0 -84 2 -96 22 -115 26 -23 62 -26 101 -6 15 8 27 11 27
6 0 -4 7 -10 15 -14 13 -5 15 11 15 109 0 96 -3 115 -15 115 -12 0 -15 -14
-15 -64 0 -97 -19 -136 -67 -136 -37 0 -53 36 -53 122 0 63 -3 78 -15 78 -12
0 -15 -17 -15 -95z"/>
<path d="M4355 1297 c-33 -27 -45 -100 -25 -147 14 -34 55 -60 95 -60 45 0 95
35 95 66 0 12 -33 1 -50 -16 -40 -40 -110 -13 -110 42 0 16 10 18 78 18 43 0
81 2 84 5 11 11 -6 66 -28 90 -31 34 -101 35 -139 2z m110 -22 c38 -37 32 -45
-40 -45 -72 0 -83 13 -43 50 29 27 54 25 83 -5z"/>
<path d="M4590 1293 c-28 -36 -5 -52 27 -17 36 39 103 26 103 -21 0 -21 -6
-24 -57 -31 -39 -5 -64 -14 -80 -30 -29 -30 -29 -49 2 -79 28 -29 66 -32 110
-9 19 10 31 11 33 5 2 -6 10 -11 18 -11 11 0 14 19 14 88 0 117 -10 132 -90
132 -52 0 -61 -3 -80 -27z m130 -110 c0 -14 -7 -35 -17 -45 -20 -22 -76 -24
-94 -2 -19 24 0 47 52 61 61 16 59 16 59 -14z"/>
</g>
</svg>
