<?xml version="1.0" encoding="UTF-8"?>
<svg version="1.1" xmlns="http://www.w3.org/2000/svg" width="500" height="500">
<path d="M0 0 C0.75216293 -0.0066568 1.50432587 -0.0133136 2.27928162 -0.02017212 C3.86332788 -0.03023216 5.44741596 -0.03499122 7.03149414 -0.03466797 C9.40390665 -0.03900819 11.77440383 -0.07530429 14.14648438 -0.11328125 C40.84673777 -0.31107767 63.76810979 11.63001342 82.72265625 30.1171875 C90.39490008 38.00510634 96.76457401 46.68442114 100.71875 57.01953125 C103.63931532 65.66760931 103.63931532 65.66760931 109.5859375 72.125 C112.55598391 73.07375308 112.55598391 73.07375308 115.66015625 73.6484375 C130.50037924 76.82590617 143.99713845 89.61140832 152.51953125 101.66796875 C160.28838403 113.87334913 162.7038469 124.68678813 162.52294922 138.89282227 C162.49608257 141.39948042 162.52285084 143.90167825 162.5546875 146.40820312 C162.57749875 157.26776665 161.50380041 166.66087184 154.37109375 175.3984375 C149.24578223 179.37055392 145.74093415 180.77646763 139.23510742 180.67651367 C138.48335236 180.67695175 137.73159729 180.67738983 136.95706177 180.67784119 C134.48412673 180.67575915 132.0118784 180.65245645 129.5390625 180.62890625 C127.81985342 180.6233082 126.10063954 180.61903909 124.38142395 180.61604309 C119.86531265 180.60461076 115.34949263 180.57515755 110.83349609 180.54193115 C106.22171977 180.51119544 101.60989619 180.49753028 96.99804688 180.48242188 C87.95560147 180.45028623 78.91337187 180.39910944 69.87109375 180.3359375 C68.79500102 175.75736514 69.24853834 172.12743974 70.24609375 167.5859375 C70.3853125 166.90144531 70.52453125 166.21695313 70.66796875 165.51171875 C71.72336114 160.48367011 71.72336114 160.48367011 72.87109375 159.3359375 C74.95651195 159.2120741 77.04609516 159.15794683 79.13500977 159.13061523 C79.78864502 159.12071564 80.44228027 159.11081604 81.11572266 159.10061646 C83.28544439 159.06892116 85.45518805 159.04421258 87.625 159.01953125 C89.12573327 158.99896863 90.62646065 158.97797235 92.12718201 158.95655823 C96.08421068 158.90126595 100.04129224 158.85188839 103.99841309 158.80371094 C108.03349535 158.753548 112.06850047 158.69783482 116.10351562 158.64257812 C124.02597652 158.5349091 131.94850179 158.43348371 139.87109375 158.3359375 C141.41285595 146.5440829 142.89929732 133.44808844 137.87109375 122.3359375 C137.39542969 121.27761719 136.91976563 120.21929687 136.4296875 119.12890625 C130.52208125 107.13550609 121.05568486 98.60792263 108.421875 94 C106.2308187 93.42958718 104.15011874 93.05493034 101.9140625 92.734375 C101.19992187 92.62561035 100.48578125 92.5168457 99.75 92.40478516 C98.30997529 92.19526284 96.86544932 92.01431468 95.41796875 91.86474609 C93.3828125 91.5703125 93.3828125 91.5703125 89.87109375 90.3359375 C88.35015426 87.80325708 87.63877485 86.10873685 86.87109375 83.3359375 C86.63060303 82.56169434 86.3901123 81.78745117 86.14233398 80.98974609 C85.61239267 79.28284015 85.0905525 77.57340253 84.57592773 75.86181641 C81.47024106 65.706888 78.01087895 58.32035533 70.87109375 50.3359375 C70.36964844 49.69011719 69.86820313 49.04429687 69.3515625 48.37890625 C57.96932376 33.84769079 39.87169733 25.1742651 21.87109375 22.3359375 C0.10185955 20.13558068 -20.7209882 24.70326979 -38.31640625 38.0234375 C-41.43016554 40.6368763 -44.36340143 43.35210335 -47.12890625 46.3359375 C-47.67160156 46.90828125 -48.21429688 47.480625 -48.7734375 48.0703125 C-56.78724689 56.79995235 -61.03357078 66.07990232 -64.734375 77.1875 C-64.96431152 77.86844727 -65.19424805 78.54939453 -65.43115234 79.25097656 C-65.91136567 80.68590373 -66.37703993 82.12575201 -66.83056641 83.56933594 C-68.61805739 88.91372908 -68.61805739 88.91372908 -70.83984375 90.75 C-74.1176779 91.58903605 -77.41728362 92.17189372 -80.75390625 92.7109375 C-94.04770419 95.12595506 -103.41477119 99.72742526 -112.12890625 110.3359375 C-115.06972338 114.71906622 -117.19847533 119.42967306 -119.12890625 124.3359375 C-119.51304688 125.24730469 -119.8971875 126.15867187 -120.29296875 127.09765625 C-121.47564699 131.67915279 -121.37912267 136.06310434 -121.31640625 140.7734375 C-121.31576172 141.68931641 -121.31511719 142.60519531 -121.31445312 143.54882812 C-121.28192781 148.58302483 -120.8630401 153.34751022 -120.12890625 158.3359375 C-119.30649445 158.34402435 -118.48408264 158.35211121 -117.63674927 158.36044312 C-109.89653803 158.43829631 -102.15651783 158.52555839 -94.41653633 158.62346458 C-90.43706898 158.67346856 -86.45762872 158.71979797 -82.47802734 158.7578125 C-78.63943743 158.79461387 -74.80107185 158.84095925 -70.96267319 158.89400101 C-69.49625447 158.91257247 -68.02978762 158.92767022 -66.56329727 158.93928146 C-64.51348004 158.95609738 -62.46417969 158.98511948 -60.41455078 159.01708984 C-59.24650909 159.03041351 -58.07846741 159.04373718 -56.87503052 159.0574646 C-54.12890625 159.3359375 -54.12890625 159.3359375 -52.12890625 161.3359375 C-51.4730854 164.17879086 -50.92011578 166.96368033 -50.44140625 169.8359375 C-50.22774414 171.01349609 -50.22774414 171.01349609 -50.00976562 172.21484375 C-48.99927754 178.07668009 -48.99927754 178.07668009 -50.12890625 180.3359375 C-60.06478989 180.40551445 -70.00061535 180.45878787 -79.93669319 180.49137402 C-84.55065657 180.50701546 -89.164453 180.52822592 -93.77832031 180.56225586 C-98.23277294 180.59490361 -102.6870652 180.61280196 -107.14162827 180.62056923 C-108.8392578 180.62610302 -110.53687877 180.63690923 -112.23443985 180.65312767 C-114.61628285 180.67497424 -116.99746711 180.67790145 -119.37939453 180.67651367 C-120.07782974 180.6872995 -120.77626495 180.69808533 -121.49586487 180.709198 C-126.86097468 180.67547692 -130.94686359 179.39190659 -134.88671875 175.6796875 C-142.25531485 165.74260933 -143.81015328 155.78258834 -143.70532227 143.69384766 C-143.69146367 141.47015099 -143.72562614 139.25068713 -143.76367188 137.02734375 C-143.86159821 118.86314408 -135.86839012 103.14703799 -123.2265625 90.234375 C-115.45869086 82.72065141 -105.35712287 74.83535649 -94.53515625 72.86328125 C-91.73057261 72.30648891 -89.61114378 71.76934227 -87.12890625 70.3359375 C-85.37371565 67.50614041 -84.34244515 64.73060543 -83.25390625 61.5859375 C-79.83220662 51.70102746 -73.60083324 43.43140632 -67.12890625 35.3359375 C-66.50242187 34.541875 -65.8759375 33.7478125 -65.23046875 32.9296875 C-59.7128789 26.31789207 -53.10070287 21.29876709 -46.12890625 16.3359375 C-45.35160156 15.78035156 -44.57429688 15.22476563 -43.7734375 14.65234375 C-31.36302754 6.54713795 -14.88590506 0.04738993 0 0 Z " fill="#D8D8D8" transform="translate(242.12890625,91.6640625)"/>
<path d="M0 0 C10.55981961 10.22708897 17.51842848 22.77572786 17.79248047 37.54614258 C17.9075042 55.23595112 13.96546145 68.59292667 1.5 81.625 C0.84 81.625 0.18 81.625 -0.5 81.625 C-0.726875 82.181875 -0.95375 82.73875 -1.1875 83.3125 C-2.5 85.625 -2.5 85.625 -4.875 87.875 C-11.13916922 94.437463 -11.96084802 100.389068 -12.12890625 109.35546875 C-12.53407343 112.92520488 -13.30712227 114.80263737 -15.5 117.625 C-19.17933062 118.85144354 -22.5898134 118.78728297 -26.421875 118.79296875 C-27.20008606 118.79629715 -27.97829712 118.79962555 -28.78009033 118.80305481 C-30.4276063 118.80811632 -32.07513251 118.81046337 -33.72265625 118.81030273 C-36.22673781 118.81247978 -38.73037192 118.83061723 -41.234375 118.84960938 C-42.83854017 118.85254546 -44.44270742 118.85452882 -46.046875 118.85546875 C-46.78879089 118.86265427 -47.53070679 118.86983978 -48.29510498 118.87724304 C-53.05803499 118.85661948 -56.97489819 118.12580809 -61.5 116.625 C-63.02745865 110.51516541 -63.77541201 104.81896496 -63.9609375 98.51953125 C-65.18331328 91.95590478 -70.16584199 87.82150626 -74.8125 83.4375 C-86.78630858 71.74436672 -93.43340075 58.21216373 -93.875 41.3125 C-93.92644641 27.43000653 -89.48114122 16.20505651 -80.5 5.625 C-79.34564453 4.13226563 -79.34564453 4.13226563 -78.16796875 2.609375 C-75.46040858 -0.6270943 -72.3816407 -2.7921426 -68.8125 -5 C-68.19818115 -5.38607422 -67.5838623 -5.77214844 -66.95092773 -6.16992188 C-45.05199537 -19.62159301 -19.25189698 -16.49743988 0 0 Z " fill="#D8D8D8" transform="translate(289.5,207.375)"/>
<path d="M0 0 C1.08849747 -0.00761353 2.17699493 -0.01522705 3.29847717 -0.02307129 C5.5973176 -0.03386247 7.89620701 -0.0367294 10.19506836 -0.03222656 C13.70705102 -0.03125432 17.21684828 -0.07288866 20.72851562 -0.1171875 C22.9648392 -0.12239475 25.20117036 -0.12508269 27.4375 -0.125 C28.48453598 -0.14139526 29.53157196 -0.15779053 30.6103363 -0.17468262 C38.74534934 -0.09778686 38.74534934 -0.09778686 42.43188477 2.81835938 C45.76817941 6.57588761 46.07691295 9.50429461 46.00390625 14.46875 C45.6807611 17.42321997 44.65881434 19.19359375 42.78515625 21.46875 C37.57283657 25.32972754 29.09957242 24.62022824 22.8828125 24.6015625 C22.16081161 24.60251923 21.43881073 24.60347595 20.69493103 24.60446167 C19.17983919 24.605137 17.66474435 24.60332832 16.1496582 24.59912109 C13.85686606 24.59377149 11.56427048 24.59908421 9.27148438 24.60546875 C-10.37687384 24.6174812 -10.37687384 24.6174812 -15.21484375 21.59375 C-18.06527199 18.56516999 -18.36856577 16.03731861 -18.40234375 12.03125 C-18.41652344 11.26941406 -18.43070313 10.50757813 -18.4453125 9.72265625 C-18.07669263 6.11767887 -17.11130119 4.2265836 -14.33447266 1.87915039 C-9.62504514 -0.25000619 -5.112853 0.00098165 0 0 Z " fill="#D8D8D8" transform="translate(238.21484375,330.53125)"/>
<path d="M0 0 C0.85332916 -0.0066568 1.70665833 -0.0133136 2.58584595 -0.02017212 C4.39314617 -0.03030728 6.20048389 -0.03498887 8.0078125 -0.03466797 C10.77146286 -0.03903469 13.53350811 -0.07532562 16.296875 -0.11328125 C18.05207787 -0.11915056 19.80728833 -0.12311919 21.5625 -0.125 C22.38865814 -0.13937103 23.21481628 -0.15374207 24.06600952 -0.16854858 C29.83690824 -0.12267331 29.83690824 -0.12267331 32.96728516 2.36474609 C33.44472168 3.01523926 33.9221582 3.66573242 34.4140625 4.3359375 C32.6640625 10.0859375 32.6640625 10.0859375 30.4140625 12.3359375 C27.59232983 12.57268536 24.87202165 12.68828845 22.046875 12.70703125 C21.21574188 12.71605972 20.38460876 12.7250882 19.52828979 12.73439026 C17.7680828 12.7489109 16.00782161 12.75778399 14.24755859 12.76147461 C11.5560382 12.77336252 8.86681677 12.8225191 6.17578125 12.87304688 C4.46615703 12.88251196 2.75651872 12.88974659 1.046875 12.89453125 C0.24259064 12.91406357 -0.56169373 12.93359589 -1.39035034 12.95372009 C-5.36105577 12.92171495 -7.17536876 12.71742724 -10.13330078 9.96899414 C-11.5859375 7.3359375 -11.5859375 7.3359375 -11.4609375 4.6484375 C-9.34700413 -0.93838642 -5.17293379 0.01386778 0 0 Z " fill="#D7D7D7" transform="translate(240.5859375,359.6640625)"/>
</svg>
